HIERARCHY
ROOT Hips
{
	OFFSET 0.00000 0.00000 0.00000
	CHANNELS 6 Xposition Yposition Zposition Zrotation Yrotation Xrotation 
	JOINT LHipJoint
	{
		OFFSET 0 0 0
		CHANNELS 3 Zrotation Yrotation Xrotation
		JOINT LeftUpLeg
		{
			OFFSET 3.13874 -1.57224 1.49786
			CHANNELS 3 Zrotation Yrotation Xrotation
			JOINT LeftLeg
			{
				OFFSET 2.10955 -5.79594 0.00000
				CHANNELS 3 Zrotation Yrotation Xrotation
				JOINT LeftFoot
				{
					OFFSET 2.41843 -6.64458 0.00000
					CHANNELS 3 Zrotation Yrotation Xrotation
					JOINT LeftToeBase
					{
						OFFSET 0.04713 -0.12948 1.66229
						CHANNELS 3 Zrotation Yrotation Xrotation
						End Site
						{
							OFFSET 0.00000 -0.00000 0.85167
						}
					}
				}
			}
		}
	}
	JOINT RHipJoint
	{
		OFFSET 0 0 0
		CHANNELS 3 Zrotation Yrotation Xrotation
		JOINT RightUpLeg
		{
			OFFSET -3.13988 -1.57224 1.49786
			CHANNELS 3 Zrotation Yrotation Xrotation
			JOINT RightLeg
			{
				OFFSET -2.15006 -5.90725 0.00000
				CHANNELS 3 Zrotation Yrotation Xrotation
				JOINT RightFoot
				{
					OFFSET -2.34496 -6.44273 0.00000
					CHANNELS 3 Zrotation Yrotation Xrotation
					JOINT RightToeBase
					{
						OFFSET -0.08699 -0.23900 1.55223
						CHANNELS 3 Zrotation Yrotation Xrotation
						End Site
						{
							OFFSET -0.00000 -0.00000 0.80281
						}
					}
				}
			}
		}
	}
	JOINT LowerBack
	{
		OFFSET 0 0 0
		CHANNELS 3 Zrotation Yrotation Xrotation
		JOINT Spine
		{
			OFFSET 0.01292 1.96517 -0.16495
			CHANNELS 3 Zrotation Yrotation Xrotation
			JOINT Spine1
			{
				OFFSET 0.02122 1.88666 0.19706
				CHANNELS 3 Zrotation Yrotation Xrotation
				JOINT Neck
				{
					OFFSET 0 0 0
					CHANNELS 3 Zrotation Yrotation Xrotation
					JOINT Neck1
					{
						OFFSET -0.01683 1.81591 0.07903
						CHANNELS 3 Zrotation Yrotation Xrotation
						JOINT Head
						{
							OFFSET 0.00815 1.74013 -0.47700
							CHANNELS 3 Zrotation Yrotation Xrotation
							End Site
							{
								OFFSET -0.00204 1.83225 -0.16933
							}
						}
					}
				}
				JOINT LeftShoulder
				{
					OFFSET 0 0 0
					CHANNELS 3 Zrotation Yrotation Xrotation
					JOINT LeftArm
					{
						OFFSET 3.38482 1.41533 0.19802
						CHANNELS 3 Zrotation Yrotation Xrotation
						JOINT LeftForeArm
						{
							OFFSET 4.32712 -0.00000 0.00000
							CHANNELS 3 Zrotation Yrotation Xrotation
							JOINT LeftHand
							{
								OFFSET 3.28587 -0.00000 -0.00000
								CHANNELS 3 Zrotation Yrotation Xrotation
								JOINT LeftFingerBase
								{
									OFFSET 0 0 0
									CHANNELS 3 Zrotation Yrotation Xrotation
									JOINT LeftHandIndex1
									{
										OFFSET 0.43316 -0.00000 -0.00000
										CHANNELS 3 Zrotation Yrotation Xrotation
										End Site
										{
											OFFSET 0.34922 -0.00000 -0.00000
										}
									}
								}
								JOINT LThumb
								{
									OFFSET 0 0 0
									CHANNELS 3 Zrotation Yrotation Xrotation
									End Site
									{
										OFFSET 0.35456 -0.00000 0.35456
									}
								}
							}
						}
					}
				}
				JOINT RightShoulder
				{
					OFFSET 0 0 0
					CHANNELS 3 Zrotation Yrotation Xrotation
					JOINT RightArm
					{
						OFFSET -3.09725 1.62858 -0.14144
						CHANNELS 3 Zrotation Yrotation Xrotation
						JOINT RightForeArm
						{
							OFFSET -4.29104 -0.00000 0.00000
							CHANNELS 3 Zrotation Yrotation Xrotation
							JOINT RightHand
							{
								OFFSET -3.22720 -0.00000 -0.00000
								CHANNELS 3 Zrotation Yrotation Xrotation
								JOINT RightFingerBase
								{
									OFFSET 0 0 0
									CHANNELS 3 Zrotation Yrotation Xrotation
									JOINT RightHandIndex1
									{
										OFFSET -0.54362 -0.00000 -0.00000
										CHANNELS 3 Zrotation Yrotation Xrotation
										End Site
										{
											OFFSET -0.43828 -0.00000 -0.00000
										}
									}
								}
								JOINT RThumb
								{
									OFFSET 0 0 0
									CHANNELS 3 Zrotation Yrotation Xrotation
									End Site
									{
										OFFSET -0.44497 -0.00000 0.44497
									}
								}
							}
						}
					}
				}
			}
		}
	}
}
MOTION
Frames: 7
Frame Time: 0.08
0.00 0.00 0.00 0 0 0 0 0 0 -21 0 0 0 0 0 0 0 0 0 0 0 0 0 0 21 0 0 0 0 0 0 0 0 0 0 0 0 0 0 0 0 0 0 0 0 0 0 -16 0 0 21 0 0 11 0 0 0 -8 0 0 0 0 0 0 0 0 0 0 0 0 0 0 0 0 0 0 0 0 8 0 0 0 0 0 0 0 0 0 0 0 0 0 0 0 0 0
0.00 0.00 0.00 -177.7020 -2.5230 -168.5750 0.0000 0.0000 0.0000 -34.0418 -39.9740 17.4632 0.0403 -1.2959 -3.5635 5.6190 -8.8280 -43.6734 1.9160 -8.6889 -24.8268 0.0000 0.0000 0.0000 35.0169 16.7054 -0.5459 -0.0070 -0.5408 1.4861 -0.8799 -10.0043 -24.0075 -0.4313 4.2145 -11.6809 2.7890 1.5742 6.0343 1.0491 1.8621 -9.8926 -0.6534 0.3317 -14.1809 0.3592 -1.4441 -19.9110 0.7080 -5.7633 36.5848 -1.1994 -3.2753 16.5479 0.0000 0.0000 0.0000 -80.1793 16.1949 24.1167 15.9680 -25.4773 -3.6322 -0.0000 -0.0000 1.5013 18.1303 21.6692 6.8939 -7.1250 0.0000 -0.0000 -10.9189 52.3424 -1.9928 0.0000 0.0000 0.0000 63.6153 -15.5016 63.8804 -20.0503 30.7029 -5.5570 0.0000 -0.0000 -6.0791 -4.7197 -14.8443 1.2117 7.1250 -0.0000 -0.0000 20.7761 -43.8347 0.6261
0.00 0.00 0.00 -177.8000 -0.2755 -167.7980 0.0000 0.0000 0.0000 -41.2232 -47.0533 28.9009 0.1240 -2.2696 -6.2515 8.3646 -24.7662 -54.2854 0.3581 -3.8447 -10.6400 0.0000 0.0000 0.0000 31.4368 -1.9547 -20.7573 -1.4416 -7.5906 21.4774 -0.4118 7.3368 -11.7739 -5.8769 14.3079 -44.4855 -1.0495 1.0377 7.1369 0.4537 0.5749 -9.9585 1.0626 0.1101 -15.0555 -1.4869 -1.7497 -16.8576 4.9944 -6.6492 32.8570 0.8970 -3.3353 14.3377 0.0000 0.0000 0.0000 -78.3248 18.2939 23.8583 15.7085 -25.1238 -3.5213 -0.0000 -0.0000 3.6533 23.6839 23.6782 9.9905 -7.1250 0.0000 -0.0000 -6.0036 55.4668 -1.5464 0.0000 0.0000 0.0000 73.2961 -19.5281 53.3309 -18.8680 29.2543 -4.9662 0.0000 -0.0000 -5.2979 -26.0855 -13.0708 6.3182 7.1250 -0.0000 -0.0000 1.1523 -44.4704 0.0151
0.00 0.00 0.00 -176.7080 0.2052 -166.5420 0.0000 0.0000 0.0000 -41.6263 -51.2028 34.9244 0.1538 -2.5267 -6.9638 10.7868 -27.2147 -62.4775 0.4871 -4.4753 -12.4179 0.0000 0.0000 0.0000 17.2148 1.1651 -21.1044 -1.4362 -7.5771 21.4367 -0.2545 -13.6940 -22.1641 -0.8295 5.8104 -16.2354 -2.1608 0.4884 7.2441 1.1903 1.2414 -9.7153 2.2104 1.2117 -14.8908 -0.4365 -3.1237 -17.6785 2.7792 -8.1279 32.7573 -0.4409 -4.0674 14.3619 -0.0000 -0.0000 0.0000 -78.1929 16.2038 21.8355 16.4812 -26.1688 -3.8557 -0.0000 -0.0000 1.3262 21.4303 21.1573 8.0633 -7.1250 0.0000 -0.0000 -7.4407 52.4046 -1.3622 -0.0000 -0.0000 0.0000 71.8031 -21.3367 49.3056 -18.7133 29.0609 -4.8908 0.0000 -0.0000 -4.8920 -25.0364 -14.3981 6.6249 7.1250 -0.0000 -0.0000 2.3175 -45.7868 -0.0450
0.00 0.00 0.00 -176.7220 0.1152 -166.6260 0.0000 0.0000 0.0000 -42.7551 -52.5930 38.5093 0.1462 -2.4643 -6.7907 11.5585 -29.9365 -65.1314 0.4303 -4.2099 -11.6679 0.0000 0.0000 0.0000 8.8342 10.3519 -11.2141 -0.2839 -3.4268 9.4692 -2.3038 -15.8599 -37.8358 -2.0598 -8.9895 25.7624 -2.0810 0.6572 7.2307 1.4244 1.5122 -9.6463 2.3734 1.3453 -14.8231 -0.9346 -3.5164 -17.5356 2.6153 -8.5099 32.7940 -0.4857 -4.3194 14.3669 -0.0000 -0.0000 0.0000 -78.1920 16.2391 21.8644 16.8043 -26.5990 -3.9993 -0.0000 -0.0000 1.5511 21.6998 20.8731 8.0700 -7.1250 0.0000 -0.0000 -7.0769 52.1573 -1.2521 -0.0000 -0.0000 0.0000 71.0823 -22.3503 47.5165 -18.7391 29.0932 -4.9034 0.0000 -0.0000 -4.4832 -25.0570 -14.2126 6.5481 7.1250 -0.0000 -0.0000 2.2692 -45.5876 -0.0329
0.00 0.00 0.00 -176.9920 0.0881 -166.7380 0.0000 0.0000 0.0000 -43.8510 -53.5233 42.6095 0.1502 -2.4975 -6.8827 12.2651 -33.2448 -67.6075 0.4637 -4.3677 -12.1136 0.0000 0.0000 0.0000 4.1113 26.7738 1.8165 -0.0028 0.3431 -0.9428 -7.8913 -13.0828 -57.7878 -3.9583 -12.1047 36.1034 -2.2172 0.6396 6.5689 1.3853 1.5018 -9.6854 2.4152 1.3602 -14.4479 -1.0989 -3.5910 -17.2487 3.0512 -8.8751 33.0266 -0.3535 -4.4778 14.4565 -0.0000 -0.0000 0.0000 -77.0169 16.4194 22.4847 16.1317 -25.6988 -3.7029 -0.0000 -0.0000 2.5757 22.2525 21.6148 8.5712 -7.1250 0.0000 -0.0000 -6.7624 53.0307 -1.3409 -0.0000 -0.0000 0.0000 71.0599 -22.8610 46.1832 -18.8558 29.2391 -4.9602 0.0000 -0.0000 -4.7080 -24.9743 -14.1613 6.5008 7.1250 -0.0000 -0.0000 2.3384 -45.5212 -0.0301
0.00 0.00 0.00 -175.2530 3.0545 -169.4530 0.0000 0.0000 0.0000 3.3890 -30.4900 6.7161 0.0472 1.4026 3.8572 7.0087 -22.2191 -49.2409 1.8235 -8.4884 -24.2076 0.0000 0.0000 0.0000 18.7913 12.6687 -9.0500 -0.3656 -3.8839 10.7503 -0.4463 -3.3952 -14.3227 -0.5661 4.8190 -13.3929 2.1293 0.3882 8.6184 0.1346 1.4924 -9.3624 -1.4322 0.7183 -15.2221 0.4438 -4.0420 -15.0182 -0.7241 -3.6992 31.7309 -0.7376 -0.8428 13.0909 -0.0000 0.0000 0.0000 -76.3357 21.6096 21.0148 15.5639 -24.9258 -3.4601 -0.0000 -0.0000 9.8182 24.6187 25.0265 10.9706 -7.1250 0.0000 -0.0000 -5.5173 57.0777 -1.6360 -0.0000 0.0000 0.0000 71.6368 -20.6178 47.0016 -19.0734 29.5098 -5.0670 0.0000 -0.0000 -2.9946 -25.3721 -14.6552 6.8418 7.1250 -0.0000 -0.0000 2.0429 -46.1115 -0.0561
